<svg width="65" height="93" viewBox="0 0 65 93" fill="none" xmlns="http://www.w3.org/2000/svg">
<path fill-rule="evenodd" clip-rule="evenodd" d="M0.96875 0.121094H14.5797V10.1021L50.8278 10.1021V0.121094H64.4387V92.978H50.8278V83.2982L14.5797 83.2982V92.978H0.96875V0.121094ZM14.5797 75.4341H50.8278V50.6327L14.5797 50.6327V75.4341ZM14.5797 42.7686L50.8278 42.7686V17.9662L14.5797 17.9662V42.7686ZM5.50648 3.44831H10.3459V8.28776H5.50648V3.44831ZM5.50659 36.1146H10.346V40.954H5.50659V36.1146ZM10.346 19.7808H5.50659V24.6203H10.346V19.7808ZM5.50659 52.4473H10.346V57.2868H5.50659V52.4473ZM10.346 11.6145H5.50659V16.4539H10.346V11.6145ZM5.50659 44.2809H10.346V49.1204H5.50659V44.2809ZM10.346 68.781H5.50659V73.6205H10.346V68.781ZM5.50659 27.9482H10.346V32.7876H5.50659V27.9482ZM10.346 60.6147H5.50659V65.4541H10.346V60.6147ZM5.50659 76.9474H10.346V81.7869H5.50659V76.9474ZM10.346 85.1138H5.50659V89.9532H10.346V85.1138ZM60.205 3.44831H55.3656V8.28776H60.205V3.44831ZM60.205 36.1146H55.3655V40.954H60.205V36.1146ZM55.3655 19.7808H60.205V24.6203H55.3655V19.7808ZM60.205 52.4473H55.3655V57.2868H60.205V52.4473ZM55.3655 11.6145H60.205V16.4539H55.3655V11.6145ZM60.205 44.2809H55.3655V49.1204H60.205V44.2809ZM55.3655 68.781H60.205V73.6205H55.3655V68.781ZM60.205 27.9482H55.3655V32.7876H60.205V27.9482ZM55.3655 60.6147H60.205V65.4541H55.3655V60.6147ZM60.205 76.9474H55.3655V81.7869H60.205V76.9474ZM55.3655 85.1138H60.205V89.9532H55.3655V85.1138Z" fill="white"/>
</svg>
