<svg width="65" height="94" viewBox="0 0 65 94" fill="none" xmlns="http://www.w3.org/2000/svg">
<path fill-rule="evenodd" clip-rule="evenodd" d="M0.589844 0.234375H14.2008V10.2154L50.4489 10.2154V0.234375H64.0598V93.0913H50.4489V83.4115L14.2008 83.4115V93.0913H0.589844V0.234375ZM14.2008 75.5473H50.4489V50.746L14.2008 50.7459V75.5473ZM14.2008 42.8818L50.4489 42.8818V18.0795L14.2008 18.0795V42.8818ZM5.12758 3.5616H9.96702V8.40104H5.12758V3.5616ZM5.12775 36.2278H9.96719V41.0673H5.12775V36.2278ZM9.96719 19.8941H5.12775V24.7336H9.96719V19.8941ZM5.12775 52.5606H9.96719V57.4H5.12775V52.5606ZM9.96719 11.7277H5.12775V16.5672H9.96719V11.7277ZM5.12775 44.3942H9.96719V49.2337H5.12775V44.3942ZM9.96719 68.8943H5.12775V73.7337H9.96719V68.8943ZM5.12775 28.0615H9.96719V32.9009H5.12775V28.0615ZM9.96719 60.7279H5.12775V65.5674H9.96719V60.7279ZM5.12775 77.0607H9.96719V81.9001H5.12775V77.0607ZM9.96719 85.2271H5.12775V90.0665H9.96719V85.2271ZM59.8261 3.5616H54.9866V8.40104H59.8261V3.5616ZM59.8261 36.2278H54.9866V41.0673H59.8261V36.2278ZM54.9866 19.8941H59.8261V24.7336H54.9866V19.8941ZM59.8261 52.5606H54.9866V57.4H59.8261V52.5606ZM54.9866 11.7277H59.8261V16.5672H54.9866V11.7277ZM59.8261 44.3942H54.9866V49.2337H59.8261V44.3942ZM54.9866 68.8943H59.8261V73.7337H54.9866V68.8943ZM59.8261 28.0615H54.9866V32.9009H59.8261V28.0615ZM54.9866 60.7279H59.8261V65.5674H54.9866V60.7279ZM59.8261 77.0607H54.9866V81.9001H59.8261V77.0607ZM54.9866 85.2271H59.8261V90.0665H54.9866V85.2271Z" fill="white"/>
</svg>

