<svg width="65" height="94" viewBox="0 0 65 94" fill="none" xmlns="http://www.w3.org/2000/svg">
<path fill-rule="evenodd" clip-rule="evenodd" d="M0.9375 0.234375H14.5485V10.2154L50.7965 10.2154V0.234375H64.4075V93.0913H50.7965V83.4115L14.5485 83.4115V93.0913H0.9375V0.234375ZM14.5485 75.5473H50.7965V50.746L14.5485 50.7459V75.5473ZM14.5485 42.8818L50.7965 42.8818V18.0795L14.5485 18.0795V42.8818ZM5.47434 3.56136H10.3138V8.40081H5.47434V3.56136ZM5.47434 36.2278H10.3138V41.0673H5.47434V36.2278ZM10.3138 19.8941H5.47434V24.7336H10.3138V19.8941ZM5.47434 52.5606H10.3138V57.4H5.47434V52.5606ZM10.3138 11.7277H5.47434V16.5672H10.3138V11.7277ZM5.47434 44.3942H10.3138V49.2337H5.47434V44.3942ZM10.3138 68.8943H5.47434V73.7337H10.3138V68.8943ZM5.47434 28.0615H10.3138V32.9009H5.47434V28.0615ZM10.3138 60.7279H5.47434V65.5674H10.3138V60.7279ZM5.47434 77.0607H10.3138V81.9001H5.47434V77.0607ZM10.3138 85.2271H5.47434V90.0665H10.3138V85.2271ZM60.1746 3.56136H55.3351V8.40081H60.1746V3.56136ZM60.1746 36.2278H55.3351V41.0673H60.1746V36.2278ZM55.3351 19.8941H60.1746V24.7336H55.3351V19.8941ZM60.1746 52.5606H55.3351V57.4H60.1746V52.5606ZM55.3351 11.7277H60.1746V16.5672H55.3351V11.7277ZM60.1746 44.3942H55.3351V49.2337H60.1746V44.3942ZM55.3351 68.8943H60.1746V73.7337H55.3351V68.8943ZM60.1746 28.0615H55.3351V32.9009H60.1746V28.0615ZM55.3351 60.7279H60.1746V65.5674H55.3351V60.7279ZM60.1746 77.0607H55.3351V81.9001H60.1746V77.0607ZM55.3351 85.2271H60.1746V90.0665H55.3351V85.2271Z" fill="#FD013A"/>
</svg>
