<svg width="163" height="35" viewBox="0 0 163 35" fill="none" xmlns="http://www.w3.org/2000/svg">
<path d="M6.51651 25.7793L1.67397 8.85521H5.58271L8.38411 20.6145H8.52459L11.6152 8.85521H14.962L18.0444 20.6393H18.1931L20.9945 8.85521H24.9033L20.0607 25.7793H16.5734L13.3506 14.7142H13.2184L10.0038 25.7793H6.51651ZM28.0311 25.7793H24.1967L30.0392 8.85521H34.6503L40.4845 25.7793H36.6501L32.4109 12.7226H32.2786L28.0311 25.7793ZM27.7914 19.127H36.8485V21.9201H27.7914V19.127ZM39.8089 11.8054V8.85521H53.7085V11.8054H48.5272V25.7793H44.9903V11.8054H39.8089ZM70.1574 14.7803H66.5379C66.4718 14.312 66.3368 13.8961 66.133 13.5325C65.9292 13.1634 65.6675 12.8493 65.348 12.5904C65.0284 12.3315 64.6593 12.1331 64.2406 11.9954C63.8274 11.8577 63.3784 11.7888 62.8936 11.7888C62.0177 11.7888 61.2547 12.0064 60.6046 12.4417C59.9545 12.8714 59.4504 13.4994 59.0923 14.3258C58.7342 15.1467 58.5552 16.1438 58.5552 17.3173C58.5552 18.5238 58.7342 19.5374 59.0923 20.3583C59.4559 21.1792 59.9628 21.7989 60.6128 22.2176C61.2629 22.6363 62.0149 22.8457 62.8688 22.8457C63.3481 22.8457 63.7916 22.7823 64.1993 22.6556C64.6125 22.5289 64.9788 22.3443 65.2984 22.1019C65.6179 21.854 65.8823 21.5538 66.0917 21.2012C66.3065 20.8486 66.4553 20.4464 66.5379 19.9947L70.1574 20.0112C70.0638 20.788 69.8296 21.5373 69.455 22.259C69.0859 22.9751 68.5873 23.617 67.9593 24.1844C67.3368 24.7463 66.593 25.1926 65.7281 25.5231C64.8687 25.8482 63.8963 26.0107 62.811 26.0107C61.3015 26.0107 59.9517 25.6691 58.7618 24.986C57.5773 24.3028 56.6408 23.314 55.9521 22.0193C55.269 20.7247 54.9274 19.1573 54.9274 17.3173C54.9274 15.4717 55.2745 13.9016 55.9686 12.6069C56.6628 11.3123 57.6049 10.3262 58.7948 9.64853C59.9848 8.96539 61.3235 8.62383 62.811 8.62383C63.7916 8.62383 64.7006 8.76155 65.538 9.03701C66.3809 9.31247 67.1274 9.71464 67.7775 10.2435C68.4276 10.7669 68.9564 11.4087 69.3641 12.169C69.7773 12.9292 70.0417 13.7997 70.1574 14.7803ZM119.194 8.85521V25.7793H116.104L108.741 15.1274H108.617V25.7793H105.039V8.85521H108.179L115.484 19.4989H115.633V8.85521H119.194ZM137.703 17.3173C137.703 19.1628 137.353 20.7329 136.653 22.0276C135.959 23.3222 135.012 24.3111 133.811 24.9942C132.615 25.6719 131.271 26.0107 129.778 26.0107C128.274 26.0107 126.924 25.6691 125.729 24.986C124.533 24.3028 123.589 23.314 122.894 22.0193C122.2 20.7247 121.853 19.1573 121.853 17.3173C121.853 15.4717 122.2 13.9016 122.894 12.6069C123.589 11.3123 124.533 10.3262 125.729 9.64853C126.924 8.96539 128.274 8.62383 129.778 8.62383C131.271 8.62383 132.615 8.96539 133.811 9.64853C135.012 10.3262 135.959 11.3123 136.653 12.6069C137.353 13.9016 137.703 15.4717 137.703 17.3173ZM134.075 17.3173C134.075 16.1218 133.896 15.1136 133.538 14.2927C133.185 13.4719 132.687 12.8493 132.042 12.4251C131.398 12.0009 130.643 11.7888 129.778 11.7888C128.913 11.7888 128.158 12.0009 127.514 12.4251C126.869 12.8493 126.368 13.4719 126.01 14.2927C125.657 15.1136 125.481 16.1218 125.481 17.3173C125.481 18.5127 125.657 19.5209 126.01 20.3418C126.368 21.1626 126.869 21.7852 127.514 22.2094C128.158 22.6336 128.913 22.8457 129.778 22.8457C130.643 22.8457 131.398 22.6336 132.042 22.2094C132.687 21.7852 133.185 21.1626 133.538 20.3418C133.896 19.5209 134.075 18.5127 134.075 17.3173ZM143.527 25.7793L138.684 8.85521H142.593L145.394 20.6145H145.535L148.626 8.85521H151.972L155.055 20.6393H155.203L158.005 8.85521H161.914L157.071 25.7793H153.584L150.361 14.7142H150.229L147.014 25.7793H143.527Z" fill="white"/>
<path fill-rule="evenodd" clip-rule="evenodd" d="M75.502 0.839844H80.4734V4.48493L93.7097 4.48493V0.839844H98.6812V34.7562H93.7097V31.223H80.4734V34.7562H75.502V0.839844ZM80.4734 28.3506L93.7097 28.3506V19.2892H80.4734V28.3506ZM80.4734 16.4168L93.7097 16.4168V7.35733L80.4734 7.35733V16.4168ZM77.1591 2.05425H78.9276V3.82276H77.1591V2.05425ZM77.1591 13.9842H78.9276V15.7527H77.1591V13.9842ZM78.9276 8.01922H77.1591V9.78772H78.9276V8.01922ZM77.1591 19.9511H78.9276V21.7196H77.1591V19.9511ZM78.9276 5.03673H77.1591V6.80524H78.9276V5.03673ZM77.1591 16.9667H78.9276V18.7352H77.1591V16.9667ZM78.9276 25.918H77.1591V27.6865H78.9276V25.918ZM77.1591 11.0017H78.9276V12.7702H77.1591V11.0017ZM78.9276 22.9355H77.1591V24.704H78.9276V22.9355ZM77.1591 28.9005H78.9276V30.669H77.1591V28.9005ZM78.9276 31.8849H77.1591V33.6534H78.9276V31.8849ZM97.1339 2.05435H95.3654V3.82286H97.1339V2.05435ZM97.1339 13.9843H95.3654V15.7528H97.1339V13.9843ZM95.3654 8.01931H97.1339V9.78782H95.3654V8.01931ZM97.1339 19.9512H95.3654V21.7197H97.1339V19.9512ZM95.3654 5.03683H97.1339V6.80534H95.3654V5.03683ZM97.1339 16.9668H95.3654V18.7353H97.1339V16.9668ZM95.3654 25.9181H97.1339V27.6866H95.3654V25.9181ZM97.1339 11.0018H95.3654V12.7703H97.1339V11.0018ZM95.3654 22.9356H97.1339V24.7041H95.3654V22.9356ZM97.1339 28.9006H95.3654V30.6691H97.1339V28.9006ZM95.3654 31.885H97.1339V33.6535H95.3654V31.885Z" fill="white"/>
</svg>
