<svg width="19" height="21" viewBox="0 0 19 21" fill="none" xmlns="http://www.w3.org/2000/svg">
<path fill-rule="evenodd" clip-rule="evenodd" d="M16.4773 7.58485C16.4773 10.3647 14.2238 12.6182 11.444 12.6182C8.6642 12.6182 6.41071 10.3647 6.41071 7.58485C6.41071 4.80503 8.6642 2.55154 11.444 2.55154C14.2238 2.55154 16.4773 4.80503 16.4773 7.58485ZM18.7652 7.58485C18.7652 11.6282 15.4874 14.906 11.444 14.906C10.1749 14.906 8.98116 14.5831 7.94056 14.0149L2.63976 20.073L0.917969 18.5664L6.12498 12.6155C4.88391 11.3038 4.12285 9.53319 4.12285 7.58485C4.12285 3.54147 7.40065 0.263672 11.444 0.263672C15.4874 0.263672 18.7652 3.54147 18.7652 7.58485Z" fill="white"/>
</svg>
